# xmcd
# 
# Track frame offsets:
#     150
#     17718
#     34985
#     54366
#     74513
#     92147
#     111238
#     123952
#     136294
#     154332
#     168374
#     182251
#     193037
#     203705
#     230918
# 
# Disc length: 3217
# 
# Revision: 1
# Processed by: cddbd v1.5.2PL0 Copyright (c) Steve Scherf et al.
# Submitted via: BonkEnc v1.0.15
# 
DISCID=d10c8f0f
DTITLE=Various Artist - Memories CD1
DYEAR=2008
DGENRE=Pop
TTITLE0=Abba - Dancing Queen
TTITLE1=Elton John - Sorry Seems to Be the Hardest Word
TTITLE2=Chris De Burge - The Lady In Red
TTITLE3=Lionel Richie - Endless Love
TTITLE4=Jennifer Warnes - Up Where We Belong
TTITLE5=Tom Jones - I'll Never Fall In Love Again
TTITLE6=James Brown - I Got You
TTITLE7=The Temptations - My Girl
TTITLE8=Jackson 5 - I'll Be There
TTITLE9=Donny Osmond - Puppy Love
TTITLE10=Patti Page - Tennessee Waltz
TTITLE11=Brian Hyland - Itsy Bitsy Teenie Weenie Yellow Polka Dot Bikini
TTITLE12=Earl Grant - The End
TTITLE13=10cc - I'm Not In Love
TTITLE14=The Everly Brothers - All I Have To Do Is Dream
EXTD=
EXTT0=
EXTT1=
EXTT2=
EXTT3=
EXTT4=
EXTT5=
EXTT6=
EXTT7=
EXTT8=
EXTT9=
EXTT10=
EXTT11=
EXTT12=
EXTT13=
EXTT14=
PLAYORDER=
